<?xml version="1.0" standalone="no"?>
<!DOCTYPE svg PUBLIC "-//W3C//DTD SVG 20010904//EN"
 "http://www.w3.org/TR/2001/REC-SVG-20010904/DTD/svg10.dtd">
<svg version="1.0" xmlns="http://www.w3.org/2000/svg"
 width="700.000000pt" height="700.000000pt" viewBox="0 0 700.000000 700.000000"
 preserveAspectRatio="xMidYMid meet">
<metadata>
Created by potrace 1.14, written by Peter Selinger 2001-2017
</metadata>
<g transform="translate(0.000000,700.000000) scale(0.100000,-0.100000)"
fill="#000000" stroke="none">
<path d="M1630 6404 c-215 -46 -406 -234 -449 -442 -8 -38 -11 -717 -11 -2332
0 -2499 -4 -2333 60 -2497 42 -111 100 -195 204 -298 144 -142 310 -223 506
-245 66 -8 644 -10 1885 -8 2015 3 1819 -5 1912 81 64 59 93 124 93 212 0 88
-29 153 -93 212 -84 78 -81 77 -449 81 l-328 3 0 289 0 289 333 3 332 3 55 31
c61 34 121 105 139 164 16 52 16 3936 0 4012 -32 157 -164 323 -310 393 -142
67 -88 65 -1401 65 l-1188 0 0 -2335 0 -2335 725 0 725 0 0 -290 0 -290 -1207
2 -1208 3 -42 23 c-105 56 -158 144 -157 262 1 92 26 151 89 209 74 68 97 74
303 79 l182 4 0 2334 0 2334 -317 -1 c-233 0 -335 -4 -383 -15z"/>
</g>
</svg>
